<svg width="31" height="31" viewBox="0 0 31 31" fill="none" xmlns="http://www.w3.org/2000/svg">
<path d="M19.8061 4.84375H11.1929C9.50942 4.84503 7.89523 5.51438 6.7048 6.7048C5.51438 7.89523 4.84503 9.50942 4.84375 11.1929V19.8061C4.84478 21.4898 5.51401 23.1042 6.70446 24.2949C7.89491 25.4855 9.50925 26.155 11.1929 26.1562H19.8061C21.4897 26.1547 23.1039 25.4852 24.2943 24.2946C25.4847 23.104 26.154 21.4897 26.1553 19.8061V11.1929C26.1545 9.50926 25.4853 7.89477 24.2948 6.70423C23.1043 5.5137 21.4898 4.84452 19.8061 4.84375ZM24.0124 19.8061C24.0121 20.9216 23.5689 21.9913 22.7801 22.7801C21.9913 23.5689 20.9216 24.0122 19.8061 24.0124H11.1929C10.6406 24.0124 10.0937 23.9036 9.5834 23.6922C9.07312 23.4808 8.60948 23.171 8.21897 22.7803C7.82845 22.3897 7.51871 21.926 7.30743 21.4157C7.09615 20.9054 6.98747 20.3584 6.98759 19.8061V11.1929C6.98747 10.6406 7.09615 10.0937 7.30745 9.58347C7.51874 9.0732 7.8285 8.60955 8.21903 8.21903C8.60955 7.8285 9.0732 7.51874 9.58347 7.30745C10.0937 7.09615 10.6406 6.98747 11.1929 6.98759H19.8061C20.9213 6.98785 21.9908 7.43099 22.7794 8.21959C23.568 9.00819 24.0112 10.0777 24.0114 11.1929L24.0124 19.8061Z" fill="#ffff"/>
<path d="M15.5 9.98974C12.4601 9.98974 9.98975 12.461 9.98975 15.5C9.98975 18.539 12.461 21.0102 15.5 21.0102C18.539 21.0102 21.0102 18.539 21.0102 15.5C21.0102 12.461 18.5399 9.98974 15.5 9.98974ZM15.5 18.8664C14.6072 18.8665 13.7509 18.512 13.1194 17.8807C12.488 17.2495 12.1332 16.3933 12.1331 15.5005C12.133 14.6076 12.4875 13.7513 13.1188 13.1199C13.75 12.4885 14.6062 12.1337 15.499 12.1336C16.3919 12.1335 17.2482 12.488 17.8796 13.1192C18.511 13.7505 18.8658 14.6067 18.8659 15.4995C18.8661 16.3923 18.5115 17.2486 17.8803 17.8801C17.249 18.5115 16.3928 18.8663 15.5 18.8664ZM21.0219 8.71002C21.2829 8.71021 21.5381 8.78779 21.7551 8.93295C21.9721 9.07812 22.1412 9.28434 22.241 9.52558C22.3408 9.76681 22.3669 10.0322 22.3159 10.2883C22.2649 10.5443 22.1392 10.7795 21.9546 10.9641C21.77 11.1487 21.5348 11.2744 21.2787 11.3254C21.0227 11.3764 20.7573 11.3503 20.5161 11.2505C20.2748 11.1507 20.0686 10.9816 19.9234 10.7646C19.7783 10.5476 19.7007 10.2925 19.7005 10.0314C19.7005 9.3029 20.1946 8.71002 21.0219 8.71002Z" fill="#ffff"/>
</svg>
