<svg width="31" height="31" viewBox="0 0 31 31" fill="none" xmlns="http://www.w3.org/2000/svg">
<path d="M8.39584 10.3334C9.46589 10.3334 10.3333 9.46593 10.3333 8.39587C10.3333 7.32582 9.46589 6.45837 8.39584 6.45837C7.32578 6.45837 6.45834 7.32582 6.45834 8.39587C6.45834 9.46593 7.32578 10.3334 8.39584 10.3334Z" fill="#ffff" stroke="#ffff"/>
<path d="M6.45834 12.9167C6.45834 12.2033 7.03664 11.625 7.75 11.625H9.04167C9.75503 11.625 10.3333 12.2033 10.3333 12.9167V23.25C10.3333 23.9634 9.75503 24.5417 9.04167 24.5417H7.75C7.03664 24.5417 6.45834 23.9634 6.45834 23.25V12.9167Z" fill="#ffff" stroke="#ffff"/>
<path d="M14.2083 24.5417H15.5C16.2134 24.5417 16.7917 23.9634 16.7917 23.25V17.4375C16.7917 15.5 20.6667 14.2083 20.6667 16.7917V23.2505C20.6667 23.9639 21.245 24.5417 21.9583 24.5417H23.25C23.9634 24.5417 24.5417 23.9634 24.5417 23.25V15.5C24.5417 12.9167 22.6042 11.625 20.0208 11.625C17.4375 11.625 16.7917 13.5625 16.7917 13.5625V12.9167C16.7917 12.2033 16.2134 11.625 15.5 11.625H14.2083C13.495 11.625 12.9167 12.2033 12.9167 12.9167V23.25C12.9167 23.9634 13.495 24.5417 14.2083 24.5417Z" fill="#ffff" stroke="#ffff"/>
</svg>
